<svg xmlns="http://www.w3.org/2000/svg" viewBox="0 0 920 500" font-family="-apple-system, BlinkMacSystemFont, 'Segoe UI', sans-serif">

  <rect x="0" y="0" width="920" height="500" fill="#1a1a1d"/>

  <text x="460" y="32" text-anchor="middle" fill="#fde68a" font-size="18" font-weight="500">The problem</text>
  <text x="460" y="54" text-anchor="middle" fill="#9a9888" font-size="13" font-style="italic">servers are huge. apps are small.</text>

  <!-- ===== LEFT: One server, one tiny app ===== -->
  <g transform="translate(60, 90)">
    <text x="180" y="0" text-anchor="middle" fill="#7fcfa0" font-size="13" font-weight="600" letter-spacing="0.5">ONE PHYSICAL SERVER</text>

    <!-- The server box (representing 96 cores / 1 TB RAM) -->
    <rect x="0" y="20" width="360" height="320" rx="10" fill="#0d2e1a" stroke="#7fcfa0" stroke-width="2"/>

    <!-- Capacity grid - 96 small squares (12 x 8) representing CPU cores -->
    <g transform="translate(20, 45)">
      <!-- 12 wide, 8 tall = 96 squares -->
      <g>
        <!-- Row 1-8: all cores -->
        <g transform="translate(0,0)"><rect x="0" y="0" width="22" height="22" rx="2" fill="#1a4d2e" stroke="#4ba377" stroke-width="0.5"/><rect x="26" y="0" width="22" height="22" rx="2" fill="#1a4d2e" stroke="#4ba377" stroke-width="0.5"/><rect x="52" y="0" width="22" height="22" rx="2" fill="#1a4d2e" stroke="#4ba377" stroke-width="0.5"/><rect x="78" y="0" width="22" height="22" rx="2" fill="#1a4d2e" stroke="#4ba377" stroke-width="0.5"/><rect x="104" y="0" width="22" height="22" rx="2" fill="#1a4d2e" stroke="#4ba377" stroke-width="0.5"/><rect x="130" y="0" width="22" height="22" rx="2" fill="#1a4d2e" stroke="#4ba377" stroke-width="0.5"/><rect x="156" y="0" width="22" height="22" rx="2" fill="#1a4d2e" stroke="#4ba377" stroke-width="0.5"/><rect x="182" y="0" width="22" height="22" rx="2" fill="#1a4d2e" stroke="#4ba377" stroke-width="0.5"/><rect x="208" y="0" width="22" height="22" rx="2" fill="#1a4d2e" stroke="#4ba377" stroke-width="0.5"/><rect x="234" y="0" width="22" height="22" rx="2" fill="#1a4d2e" stroke="#4ba377" stroke-width="0.5"/><rect x="260" y="0" width="22" height="22" rx="2" fill="#1a4d2e" stroke="#4ba377" stroke-width="0.5"/><rect x="286" y="0" width="22" height="22" rx="2" fill="#1a4d2e" stroke="#4ba377" stroke-width="0.5"/></g>
        <g transform="translate(0,26)"><rect x="0" y="0" width="22" height="22" rx="2" fill="#1a4d2e" stroke="#4ba377" stroke-width="0.5"/><rect x="26" y="0" width="22" height="22" rx="2" fill="#1a4d2e" stroke="#4ba377" stroke-width="0.5"/><rect x="52" y="0" width="22" height="22" rx="2" fill="#1a4d2e" stroke="#4ba377" stroke-width="0.5"/><rect x="78" y="0" width="22" height="22" rx="2" fill="#1a4d2e" stroke="#4ba377" stroke-width="0.5"/><rect x="104" y="0" width="22" height="22" rx="2" fill="#1a4d2e" stroke="#4ba377" stroke-width="0.5"/><rect x="130" y="0" width="22" height="22" rx="2" fill="#1a4d2e" stroke="#4ba377" stroke-width="0.5"/><rect x="156" y="0" width="22" height="22" rx="2" fill="#1a4d2e" stroke="#4ba377" stroke-width="0.5"/><rect x="182" y="0" width="22" height="22" rx="2" fill="#1a4d2e" stroke="#4ba377" stroke-width="0.5"/><rect x="208" y="0" width="22" height="22" rx="2" fill="#1a4d2e" stroke="#4ba377" stroke-width="0.5"/><rect x="234" y="0" width="22" height="22" rx="2" fill="#1a4d2e" stroke="#4ba377" stroke-width="0.5"/><rect x="260" y="0" width="22" height="22" rx="2" fill="#1a4d2e" stroke="#4ba377" stroke-width="0.5"/><rect x="286" y="0" width="22" height="22" rx="2" fill="#1a4d2e" stroke="#4ba377" stroke-width="0.5"/></g>
        <g transform="translate(0,52)"><rect x="0" y="0" width="22" height="22" rx="2" fill="#1a4d2e" stroke="#4ba377" stroke-width="0.5"/><rect x="26" y="0" width="22" height="22" rx="2" fill="#1a4d2e" stroke="#4ba377" stroke-width="0.5"/><rect x="52" y="0" width="22" height="22" rx="2" fill="#1a4d2e" stroke="#4ba377" stroke-width="0.5"/><rect x="78" y="0" width="22" height="22" rx="2" fill="#1a4d2e" stroke="#4ba377" stroke-width="0.5"/><rect x="104" y="0" width="22" height="22" rx="2" fill="#1a4d2e" stroke="#4ba377" stroke-width="0.5"/><rect x="130" y="0" width="22" height="22" rx="2" fill="#1a4d2e" stroke="#4ba377" stroke-width="0.5"/><rect x="156" y="0" width="22" height="22" rx="2" fill="#1a4d2e" stroke="#4ba377" stroke-width="0.5"/><rect x="182" y="0" width="22" height="22" rx="2" fill="#1a4d2e" stroke="#4ba377" stroke-width="0.5"/><rect x="208" y="0" width="22" height="22" rx="2" fill="#1a4d2e" stroke="#4ba377" stroke-width="0.5"/><rect x="234" y="0" width="22" height="22" rx="2" fill="#1a4d2e" stroke="#4ba377" stroke-width="0.5"/><rect x="260" y="0" width="22" height="22" rx="2" fill="#1a4d2e" stroke="#4ba377" stroke-width="0.5"/><rect x="286" y="0" width="22" height="22" rx="2" fill="#1a4d2e" stroke="#4ba377" stroke-width="0.5"/></g>
        <g transform="translate(0,78)"><rect x="0" y="0" width="22" height="22" rx="2" fill="#1a4d2e" stroke="#4ba377" stroke-width="0.5"/><rect x="26" y="0" width="22" height="22" rx="2" fill="#1a4d2e" stroke="#4ba377" stroke-width="0.5"/><rect x="52" y="0" width="22" height="22" rx="2" fill="#1a4d2e" stroke="#4ba377" stroke-width="0.5"/><rect x="78" y="0" width="22" height="22" rx="2" fill="#1a4d2e" stroke="#4ba377" stroke-width="0.5"/><rect x="104" y="0" width="22" height="22" rx="2" fill="#1a4d2e" stroke="#4ba377" stroke-width="0.5"/><rect x="130" y="0" width="22" height="22" rx="2" fill="#1a4d2e" stroke="#4ba377" stroke-width="0.5"/><rect x="156" y="0" width="22" height="22" rx="2" fill="#1a4d2e" stroke="#4ba377" stroke-width="0.5"/><rect x="182" y="0" width="22" height="22" rx="2" fill="#1a4d2e" stroke="#4ba377" stroke-width="0.5"/><rect x="208" y="0" width="22" height="22" rx="2" fill="#1a4d2e" stroke="#4ba377" stroke-width="0.5"/><rect x="234" y="0" width="22" height="22" rx="2" fill="#1a4d2e" stroke="#4ba377" stroke-width="0.5"/><rect x="260" y="0" width="22" height="22" rx="2" fill="#1a4d2e" stroke="#4ba377" stroke-width="0.5"/><rect x="286" y="0" width="22" height="22" rx="2" fill="#1a4d2e" stroke="#4ba377" stroke-width="0.5"/></g>
        <g transform="translate(0,104)"><rect x="0" y="0" width="22" height="22" rx="2" fill="#1a4d2e" stroke="#4ba377" stroke-width="0.5"/><rect x="26" y="0" width="22" height="22" rx="2" fill="#1a4d2e" stroke="#4ba377" stroke-width="0.5"/><rect x="52" y="0" width="22" height="22" rx="2" fill="#1a4d2e" stroke="#4ba377" stroke-width="0.5"/><rect x="78" y="0" width="22" height="22" rx="2" fill="#1a4d2e" stroke="#4ba377" stroke-width="0.5"/><rect x="104" y="0" width="22" height="22" rx="2" fill="#1a4d2e" stroke="#4ba377" stroke-width="0.5"/><rect x="130" y="0" width="22" height="22" rx="2" fill="#1a4d2e" stroke="#4ba377" stroke-width="0.5"/><rect x="156" y="0" width="22" height="22" rx="2" fill="#1a4d2e" stroke="#4ba377" stroke-width="0.5"/><rect x="182" y="0" width="22" height="22" rx="2" fill="#1a4d2e" stroke="#4ba377" stroke-width="0.5"/><rect x="208" y="0" width="22" height="22" rx="2" fill="#1a4d2e" stroke="#4ba377" stroke-width="0.5"/><rect x="234" y="0" width="22" height="22" rx="2" fill="#1a4d2e" stroke="#4ba377" stroke-width="0.5"/><rect x="260" y="0" width="22" height="22" rx="2" fill="#1a4d2e" stroke="#4ba377" stroke-width="0.5"/><rect x="286" y="0" width="22" height="22" rx="2" fill="#1a4d2e" stroke="#4ba377" stroke-width="0.5"/></g>
        <g transform="translate(0,130)"><rect x="0" y="0" width="22" height="22" rx="2" fill="#1a4d2e" stroke="#4ba377" stroke-width="0.5"/><rect x="26" y="0" width="22" height="22" rx="2" fill="#1a4d2e" stroke="#4ba377" stroke-width="0.5"/><rect x="52" y="0" width="22" height="22" rx="2" fill="#1a4d2e" stroke="#4ba377" stroke-width="0.5"/><rect x="78" y="0" width="22" height="22" rx="2" fill="#1a4d2e" stroke="#4ba377" stroke-width="0.5"/><rect x="104" y="0" width="22" height="22" rx="2" fill="#1a4d2e" stroke="#4ba377" stroke-width="0.5"/><rect x="130" y="0" width="22" height="22" rx="2" fill="#1a4d2e" stroke="#4ba377" stroke-width="0.5"/><rect x="156" y="0" width="22" height="22" rx="2" fill="#1a4d2e" stroke="#4ba377" stroke-width="0.5"/><rect x="182" y="0" width="22" height="22" rx="2" fill="#1a4d2e" stroke="#4ba377" stroke-width="0.5"/><rect x="208" y="0" width="22" height="22" rx="2" fill="#1a4d2e" stroke="#4ba377" stroke-width="0.5"/><rect x="234" y="0" width="22" height="22" rx="2" fill="#1a4d2e" stroke="#4ba377" stroke-width="0.5"/><rect x="260" y="0" width="22" height="22" rx="2" fill="#1a4d2e" stroke="#4ba377" stroke-width="0.5"/><rect x="286" y="0" width="22" height="22" rx="2" fill="#1a4d2e" stroke="#4ba377" stroke-width="0.5"/></g>
        <g transform="translate(0,156)"><rect x="0" y="0" width="22" height="22" rx="2" fill="#1a4d2e" stroke="#4ba377" stroke-width="0.5"/><rect x="26" y="0" width="22" height="22" rx="2" fill="#1a4d2e" stroke="#4ba377" stroke-width="0.5"/><rect x="52" y="0" width="22" height="22" rx="2" fill="#1a4d2e" stroke="#4ba377" stroke-width="0.5"/><rect x="78" y="0" width="22" height="22" rx="2" fill="#1a4d2e" stroke="#4ba377" stroke-width="0.5"/><rect x="104" y="0" width="22" height="22" rx="2" fill="#1a4d2e" stroke="#4ba377" stroke-width="0.5"/><rect x="130" y="0" width="22" height="22" rx="2" fill="#1a4d2e" stroke="#4ba377" stroke-width="0.5"/><rect x="156" y="0" width="22" height="22" rx="2" fill="#1a4d2e" stroke="#4ba377" stroke-width="0.5"/><rect x="182" y="0" width="22" height="22" rx="2" fill="#1a4d2e" stroke="#4ba377" stroke-width="0.5"/><rect x="208" y="0" width="22" height="22" rx="2" fill="#1a4d2e" stroke="#4ba377" stroke-width="0.5"/><rect x="234" y="0" width="22" height="22" rx="2" fill="#1a4d2e" stroke="#4ba377" stroke-width="0.5"/><rect x="260" y="0" width="22" height="22" rx="2" fill="#1a4d2e" stroke="#4ba377" stroke-width="0.5"/><rect x="286" y="0" width="22" height="22" rx="2" fill="#1a4d2e" stroke="#4ba377" stroke-width="0.5"/></g>
        <g transform="translate(0,182)"><rect x="0" y="0" width="22" height="22" rx="2" fill="#1a4d2e" stroke="#4ba377" stroke-width="0.5"/><rect x="26" y="0" width="22" height="22" rx="2" fill="#1a4d2e" stroke="#4ba377" stroke-width="0.5"/><rect x="52" y="0" width="22" height="22" rx="2" fill="#1a4d2e" stroke="#4ba377" stroke-width="0.5"/><rect x="78" y="0" width="22" height="22" rx="2" fill="#1a4d2e" stroke="#4ba377" stroke-width="0.5"/><rect x="104" y="0" width="22" height="22" rx="2" fill="#1a4d2e" stroke="#4ba377" stroke-width="0.5"/><rect x="130" y="0" width="22" height="22" rx="2" fill="#1a4d2e" stroke="#4ba377" stroke-width="0.5"/><rect x="156" y="0" width="22" height="22" rx="2" fill="#1a4d2e" stroke="#4ba377" stroke-width="0.5"/><rect x="182" y="0" width="22" height="22" rx="2" fill="#1a4d2e" stroke="#4ba377" stroke-width="0.5"/><rect x="208" y="0" width="22" height="22" rx="2" fill="#1a4d2e" stroke="#4ba377" stroke-width="0.5"/><rect x="234" y="0" width="22" height="22" rx="2" fill="#1a4d2e" stroke="#4ba377" stroke-width="0.5"/><rect x="260" y="0" width="22" height="22" rx="2" fill="#1a4d2e" stroke="#4ba377" stroke-width="0.5"/><rect x="286" y="0" width="22" height="22" rx="2" fill="#1a4d2e" stroke="#4ba377" stroke-width="0.5"/></g>
      </g>

      <!-- Highlight just 4 squares (top-left) — what one app actually uses -->
      <rect x="0" y="0" width="22" height="22" rx="2" fill="#fde68a" stroke="#f59e0b" stroke-width="1.5"/>
      <rect x="26" y="0" width="22" height="22" rx="2" fill="#fde68a" stroke="#f59e0b" stroke-width="1.5"/>
      <rect x="52" y="0" width="22" height="22" rx="2" fill="#fde68a" stroke="#f59e0b" stroke-width="1.5"/>
      <rect x="78" y="0" width="22" height="22" rx="2" fill="#fde68a" stroke="#f59e0b" stroke-width="1.5"/>
    </g>

    <text x="180" y="290" text-anchor="middle" fill="#c4f0d4" font-size="13" font-weight="500">96 cores · 1 TB RAM</text>
    <text x="180" y="310" text-anchor="middle" fill="#fde68a" font-size="11" font-style="italic">4 cores used (highlighted)</text>
    <text x="180" y="328" text-anchor="middle" fill="#fda4a4" font-size="11">~96% wasted</text>
  </g>

  <!-- ===== RIGHT: The question ===== -->
  <g transform="translate(500, 120)">
    <text x="0" y="0" fill="#7fc7f5" font-size="13" font-weight="600" letter-spacing="0.5">YOUR WEB APP NEEDS</text>
    <text x="0" y="35" fill="#dbe9f7" font-size="16">4 cores</text>
    <text x="0" y="56" fill="#dbe9f7" font-size="16">8 GB RAM</text>
    <text x="0" y="77" fill="#dbe9f7" font-size="16">50 GB disk</text>

    <line x1="0" y1="100" x2="380" y2="100" stroke="#3a3a3e" stroke-width="0.5"/>

    <text x="0" y="125" fill="#9a9888" font-size="11" letter-spacing="0.5">SO ONE SERVER PER APP IS WASTEFUL</text>
    <text x="0" y="150" fill="#f3f1ea" font-size="13">If buying a whole server for every app...</text>
    <text x="0" y="172" fill="#fda4a4" font-size="13">→ 92 cores idle</text>
    <text x="0" y="192" fill="#fda4a4" font-size="13">→ 992 GB RAM idle</text>
    <text x="0" y="212" fill="#fda4a4" font-size="13">→ thousands of $ wasted per server</text>

    <text x="0" y="252" fill="#fde68a" font-size="14" font-weight="500" font-style="italic">How do many small apps share one big server?</text>
    <text x="0" y="278" fill="#9a9888" font-size="12" font-style="italic">— without seeing each other?</text>
    <text x="0" y="296" fill="#9a9888" font-size="12" font-style="italic">— and each one thinking it owns the place?</text>
  </g>

  <!-- Bottom takeaway -->
  <rect x="60" y="445" width="800" height="40" rx="10" fill="#2a2520" stroke="#f59e0b" stroke-width="1.5"/>
  <text x="80" y="471" fill="#fde68a" font-size="14" font-style="italic">
    That question is what virtualization was invented to answer.
  </text>
</svg>
